<svg width="350" height="140" viewBox="0 0 350 140" fill="none" xmlns="http://www.w3.org/2000/svg">
<g opacity="0.5">
<path d="M139.828 0H209.742V69.9139L139.828 0Z" fill="url(#paint0_linear_416_2317)" fill-opacity="0.2"/>
<path d="M0 69.9139H69.9139V0L0 69.9139Z" fill="url(#paint1_linear_416_2317)" fill-opacity="0.2"/>
<path d="M209.742 0H279.656V69.9139L209.742 0Z" fill="url(#paint2_linear_416_2317)" fill-opacity="0.2"/>
<path d="M69.9139 69.9139H139.828V0L69.9139 69.9139Z" fill="url(#paint3_linear_416_2317)" fill-opacity="0.2"/>
</g>
<g opacity="0.5">
<path d="M209.828 140H139.914V70.0861L209.828 140Z" fill="url(#paint4_linear_416_2317)" fill-opacity="0.2"/>
<path d="M349.656 70.0861H279.742V140L349.656 70.0861Z" fill="url(#paint5_linear_416_2317)" fill-opacity="0.2"/>
<path d="M139.914 140H70.0002V70.0861L139.914 140Z" fill="url(#paint6_linear_416_2317)" fill-opacity="0.2"/>
<path d="M279.742 70.0861H209.828V140L279.742 70.0861Z" fill="url(#paint7_linear_416_2317)" fill-opacity="0.2"/>
</g>
<defs>
<linearGradient id="paint0_linear_416_2317" x1="139.828" y1="0" x2="139.828" y2="69.9139" gradientUnits="userSpaceOnUse">
<stop stop-color="white" stop-opacity="0.5"/>
<stop offset="1" stop-color="white" stop-opacity="0.1"/>
</linearGradient>
<linearGradient id="paint1_linear_416_2317" x1="139.828" y1="0" x2="139.828" y2="69.9139" gradientUnits="userSpaceOnUse">
<stop stop-color="white" stop-opacity="0.5"/>
<stop offset="1" stop-color="white" stop-opacity="0.1"/>
</linearGradient>
<linearGradient id="paint2_linear_416_2317" x1="139.828" y1="0" x2="139.828" y2="69.9139" gradientUnits="userSpaceOnUse">
<stop stop-color="white" stop-opacity="0.5"/>
<stop offset="1" stop-color="white" stop-opacity="0.1"/>
</linearGradient>
<linearGradient id="paint3_linear_416_2317" x1="139.828" y1="0" x2="139.828" y2="69.9139" gradientUnits="userSpaceOnUse">
<stop stop-color="white" stop-opacity="0.5"/>
<stop offset="1" stop-color="white" stop-opacity="0.1"/>
</linearGradient>
<linearGradient id="paint4_linear_416_2317" x1="209.828" y1="140" x2="209.828" y2="70.0861" gradientUnits="userSpaceOnUse">
<stop stop-color="white" stop-opacity="0.5"/>
<stop offset="1" stop-color="white" stop-opacity="0.1"/>
</linearGradient>
<linearGradient id="paint5_linear_416_2317" x1="209.828" y1="140" x2="209.828" y2="70.0861" gradientUnits="userSpaceOnUse">
<stop stop-color="white" stop-opacity="0.5"/>
<stop offset="1" stop-color="white" stop-opacity="0.1"/>
</linearGradient>
<linearGradient id="paint6_linear_416_2317" x1="209.828" y1="140" x2="209.828" y2="70.0861" gradientUnits="userSpaceOnUse">
<stop stop-color="white" stop-opacity="0.5"/>
<stop offset="1" stop-color="white" stop-opacity="0.1"/>
</linearGradient>
<linearGradient id="paint7_linear_416_2317" x1="209.828" y1="140" x2="209.828" y2="70.0861" gradientUnits="userSpaceOnUse">
<stop stop-color="white" stop-opacity="0.5"/>
<stop offset="1" stop-color="white" stop-opacity="0.1"/>
</linearGradient>
</defs>
</svg>
