<svg width="24" height="24" viewBox="0 0 24 24" fill="none" xmlns="http://www.w3.org/2000/svg">
<path fill-rule="evenodd" clip-rule="evenodd" d="M12.0001 2C9.2006 2 6.91675 4.2023 6.91675 6.9375C6.91675 9.6727 9.2006 11.875 12.0001 11.875C14.7996 11.875 17.0835 9.67271 17.0835 6.9375C17.0835 4.20229 14.7996 2 12.0001 2ZM12 4.00004C13.7109 4.00004 15.0834 5.32351 15.0834 6.93754C15.0834 8.55157 13.7109 9.87504 12 9.87504C10.2892 9.87504 8.91673 8.55157 8.91673 6.93754C8.91673 5.32351 10.2892 4.00004 12 4.00004ZM9.04916 13.2417L8.84117 13.276C6.04596 13.7369 4 16.2145 4 19.1115C4 20.6996 5.25879 22 6.82813 22H17.1719C18.7412 22 20 20.6996 20 19.1115C20 16.2145 17.9541 13.7369 15.1587 13.276L14.9509 13.2417C12.996 12.9194 11.004 12.9194 9.04916 13.2417ZM14.6255 15.215L14.8331 15.2493C16.6513 15.5491 18 17.1823 18 19.1114C18 19.6093 17.6218 19.9999 17.1719 19.9999H6.82809C6.37812 19.9999 5.99996 19.6093 5.99996 19.1114C5.99996 17.1823 7.34863 15.5491 9.16667 15.2493L9.37466 15.215C11.1138 14.9283 12.8861 14.9283 14.6255 15.215Z" fill="#898B94"/>
<path d="M8.84117 13.276L8.88183 13.5227L8.88189 13.5227L8.84117 13.276ZM9.04916 13.2417L9.0085 12.995L9.00844 12.995L9.04916 13.2417ZM15.1587 13.276L15.118 13.5227L15.118 13.5227L15.1587 13.276ZM14.9509 13.2417L14.9916 12.995L14.9915 12.995L14.9509 13.2417ZM14.8331 15.2493L14.7924 15.496L14.7924 15.496L14.8331 15.2493ZM14.6255 15.215L14.6662 14.9684L14.6662 14.9684L14.6255 15.215ZM9.16667 15.2493L9.20734 15.496L9.20739 15.496L9.16667 15.2493ZM9.37466 15.215L9.33399 14.9683L9.33394 14.9683L9.37466 15.215ZM7.16675 6.9375C7.16675 4.3477 9.33123 2.25 12.0001 2.25V1.75C9.06998 1.75 6.66675 4.0569 6.66675 6.9375H7.16675ZM12.0001 11.625C9.33123 11.625 7.16675 9.5273 7.16675 6.9375H6.66675C6.66675 9.8181 9.06998 12.125 12.0001 12.125V11.625ZM16.8335 6.9375C16.8335 9.52731 14.6689 11.625 12.0001 11.625V12.125C14.9302 12.125 17.3335 9.81811 17.3335 6.9375H16.8335ZM12.0001 2.25C14.6689 2.25 16.8335 4.3477 16.8335 6.9375H17.3335C17.3335 4.05689 14.9302 1.75 12.0001 1.75V2.25ZM15.3334 6.93754C15.3334 5.17501 13.8383 3.75004 12 3.75004V4.25004C13.5835 4.25004 14.8334 5.472 14.8334 6.93754H15.3334ZM12 10.125C13.8383 10.125 15.3334 8.70006 15.3334 6.93754H14.8334C14.8334 8.40308 13.5835 9.62504 12 9.62504V10.125ZM8.66673 6.93754C8.66673 8.70006 10.1618 10.125 12 10.125V9.62504C10.4166 9.62504 9.16673 8.40308 9.16673 6.93754H8.66673ZM12 3.75004C10.1618 3.75004 8.66673 5.17502 8.66673 6.93754H9.16673C9.16673 5.47199 10.4166 4.25004 12 4.25004V3.75004ZM8.88189 13.5227L9.08988 13.4884L9.00844 12.995L8.80045 13.0294L8.88189 13.5227ZM4.25 19.1115C4.25 16.3316 6.21244 13.9628 8.88183 13.5227L8.8005 13.0294C5.87948 13.5109 3.75 16.0973 3.75 19.1115H4.25ZM6.82813 21.75C5.40263 21.75 4.25 20.5674 4.25 19.1115H3.75C3.75 20.8318 5.11495 22.25 6.82813 22.25V21.75ZM17.1719 21.75H6.82813V22.25H17.1719V21.75ZM19.75 19.1115C19.75 20.5674 18.5974 21.75 17.1719 21.75V22.25C18.885 22.25 20.25 20.8318 20.25 19.1115H19.75ZM15.118 13.5227C17.7876 13.9628 19.75 16.3316 19.75 19.1115H20.25C20.25 16.0973 18.1205 13.5109 15.1993 13.0293L15.118 13.5227ZM14.9101 13.4884L15.118 13.5227L15.1994 13.0293L14.9916 12.995L14.9101 13.4884ZM9.08983 13.4884C11.0177 13.1705 12.9823 13.1705 14.9102 13.4884L14.9915 12.995C13.0098 12.6683 10.9902 12.6683 9.0085 12.995L9.08983 13.4884ZM14.8738 15.0026L14.6662 14.9684L14.5848 15.4617L14.7924 15.496L14.8738 15.0026ZM18.25 19.1114C18.25 17.0669 16.8195 15.3234 14.8738 15.0026L14.7924 15.496C16.4831 15.7747 17.75 17.2976 17.75 19.1114H18.25ZM17.1719 20.2499C17.7735 20.2499 18.25 19.7333 18.25 19.1114H17.75C17.75 19.4852 17.4701 19.7499 17.1719 19.7499V20.2499ZM6.82809 20.2499H17.1719V19.7499H6.82809V20.2499ZM5.74996 19.1114C5.74996 19.7334 6.22644 20.2499 6.82809 20.2499V19.7499C6.52981 19.7499 6.24996 19.4852 6.24996 19.1114H5.74996ZM9.12601 15.0027C7.18043 15.3234 5.74996 17.0669 5.74996 19.1114H6.24996C6.24996 17.2976 7.51683 15.7747 9.20734 15.496L9.12601 15.0027ZM9.33394 14.9683L9.12596 15.0027L9.20739 15.496L9.41537 15.4617L9.33394 14.9683ZM14.6662 14.9684C12.8999 14.6772 11.1001 14.6772 9.33399 14.9683L9.41532 15.4617C11.1275 15.1794 12.8724 15.1794 14.5848 15.4617L14.6662 14.9684Z" fill="#353339"/>
</svg>
