<svg width="20" height="20" viewBox="0 0 20 20" fill="none" xmlns="http://www.w3.org/2000/svg">
<g clip-path="url(#clip0_179_13338)">
<path fill-rule="evenodd" clip-rule="evenodd" d="M1.29335 10.9001C1.18718 10.7939 1.12753 10.6499 1.12753 10.4998C1.12753 10.3496 1.18718 10.2056 1.29335 10.0995L6.09718 5.29563C6.20335 5.18946 6.34735 5.12982 6.4975 5.12982C6.64765 5.12982 6.79165 5.18946 6.89782 5.29563C7.00399 5.40181 7.06364 5.5458 7.06364 5.69595C7.06364 5.8461 7.00399 5.9901 6.89782 6.09627L3.06036 9.93373L19.3077 9.93293C19.3822 9.93293 19.4559 9.9476 19.5246 9.97608C19.5934 10.0046 19.6559 10.0463 19.7085 10.099C19.7612 10.1516 19.8029 10.2141 19.8314 10.2829C19.8599 10.3516 19.8746 10.4253 19.8746 10.4998C19.8746 10.5742 19.8599 10.6479 19.8314 10.7167C19.8029 10.7855 19.7612 10.848 19.7085 10.9006C19.6559 10.9532 19.5934 10.995 19.5246 11.0235C19.4559 11.052 19.3822 11.0666 19.3077 11.0666L3.06036 11.0658L6.89782 14.9033C7.00399 15.0095 7.06364 15.1535 7.06364 15.3036C7.06364 15.4538 7.00399 15.5978 6.89782 15.7039C6.79165 15.8101 6.64765 15.8698 6.4975 15.8698C6.34735 15.8698 6.20335 15.8101 6.09718 15.7039L1.29335 10.9001Z" fill="white" stroke="white" stroke-width="0.5"/>
</g>
<defs>
<clipPath id="clip0_179_13338">
<rect width="20" height="20" fill="white" transform="translate(0 20) rotate(-90)"/>
</clipPath>
</defs>
</svg>
