<svg width="20" height="20" viewBox="0 0 20 20" fill="none" xmlns="http://www.w3.org/2000/svg">
<path d="M2.04518 13.3837C2.27959 13.6181 2.59748 13.7497 2.92893 13.7497C3.26039 13.7497 3.57827 13.6181 3.81268 13.3837L10.0002 7.19625L16.1877 13.3837C16.4234 13.6114 16.7392 13.7374 17.0669 13.7346C17.3947 13.7317 17.7082 13.6003 17.94 13.3685C18.1717 13.1368 18.3032 12.8232 18.306 12.4955C18.3089 12.1678 18.1829 11.852 17.9552 11.6162L10.8839 4.545C10.6495 4.31066 10.3316 4.17902 10.0002 4.17902C9.66873 4.17902 9.35084 4.31066 9.11643 4.545L2.04518 11.6162C1.81084 11.8507 1.6792 12.1685 1.6792 12.5C1.6792 12.8315 1.81084 13.1493 2.04518 13.3837Z" fill="#000033" stroke="white" stroke-width="0.5"/>
</svg>
