<svg width="24" height="24" viewBox="0 0 24 24" fill="none" xmlns="http://www.w3.org/2000/svg">
<path d="M8.4232 12L8.52926 11.8939L15.9542 4.46896C16.2073 4.2158 16.3495 3.87248 16.3495 3.51451C16.3495 3.15655 16.2073 2.81325 15.9543 2.56009C15.7011 2.30701 15.3578 2.16483 14.9998 2.16483C14.6419 2.16483 14.2986 2.307 14.0454 2.56008L8.4232 12ZM8.4232 12L8.52926 12.1061L15.9524 19.5292C15.9527 19.5295 15.953 19.5298 15.9533 19.5301C16.1987 19.7847 16.3344 20.1253 16.3313 20.4788C16.3283 20.8328 16.1863 21.1714 15.936 21.4217C15.6857 21.672 15.3471 21.814 14.9931 21.817C14.6396 21.8201 14.2989 21.6843 14.0444 21.439C14.0441 21.4387 14.0438 21.4384 14.0435 21.4381L5.55991 12.9545C5.30682 12.7013 5.16465 12.358 5.16465 12C5.16465 11.642 5.30682 11.2987 5.55989 11.0456C5.5599 11.0456 5.5599 11.0456 5.55991 11.0456L14.0454 2.56009L8.4232 12Z" fill="black" stroke="black" stroke-width="0.3"/>
</svg>
