<svg width="20" height="20" viewBox="0 0 20 20" fill="none" xmlns="http://www.w3.org/2000/svg">
<path d="M17.9548 6.61619C17.7204 6.38185 17.4025 6.25021 17.0711 6.25021C16.7396 6.25021 16.4217 6.38185 16.1873 6.61619L9.99982 12.8037L3.81232 6.61619C3.57656 6.38849 3.26081 6.2625 2.93307 6.26535C2.60532 6.2682 2.2918 6.39966 2.06004 6.63142C1.82828 6.86318 1.69682 7.17669 1.69398 7.50444C1.69113 7.83219 1.81712 8.14794 2.04482 8.38369L9.11607 15.4549C9.35048 15.6893 9.66836 15.8209 9.99982 15.8209C10.3313 15.8209 10.6492 15.6893 10.8836 15.4549L17.9548 8.38369C18.1892 8.14928 18.3208 7.8314 18.3208 7.49994C18.3208 7.16849 18.1892 6.8506 17.9548 6.61619Z" fill="#5E626C" stroke="white" stroke-width="0.5"/>
</svg>
