<svg width="20" height="17" viewBox="0 0 20 17" fill="none" xmlns="http://www.w3.org/2000/svg">
<path fill-rule="evenodd" clip-rule="evenodd" d="M14 15C14.2549 15.0003 14.5 15.0979 14.6854 15.2728C14.8707 15.4478 14.9822 15.687 14.9972 15.9414C15.0121 16.1958 14.9293 16.4464 14.7657 16.6418C14.6021 16.8373 14.3701 16.9629 14.117 16.993L14 17H6C5.74512 16.9997 5.49997 16.9021 5.31463 16.7272C5.1293 16.5522 5.01777 16.313 5.00283 16.0586C4.98789 15.8042 5.07067 15.5536 5.23426 15.3582C5.39786 15.1627 5.6299 15.0371 5.883 15.007L6 15H14ZM18 1.00268e-07C18.5046 -0.000159579 18.9906 0.190406 19.3605 0.533497C19.7305 0.876588 19.9572 1.34684 19.995 1.85L20 2V12C20.0002 12.5046 19.8096 12.9906 19.4665 13.3605C19.1234 13.7305 18.6532 13.9572 18.15 13.995L18 14H2C1.49542 14.0002 1.00943 13.8096 0.639452 13.4665C0.269471 13.1234 0.0428434 12.6532 0.00500021 12.15L1.00268e-07 12V2C-0.000159579 1.49542 0.190406 1.00943 0.533497 0.639452C0.876588 0.269471 1.34684 0.0428434 1.85 0.00500021L2 1.00268e-07H18ZM18 2H2V12H18V2Z" fill="black"/>
</svg>
