<svg width="30" height="30" viewBox="0 0 30 30" fill="none" xmlns="http://www.w3.org/2000/svg">
<path d="M25.965 12.695L24.255 7.56375C24.0069 6.81685 23.5298 6.16713 22.8914 5.70689C22.253 5.24664 21.4858 4.9993 20.6987 5H9.30125C8.51424 4.9993 7.74702 5.24664 7.1086 5.70689C6.47019 6.16713 5.99306 6.81685 5.745 7.56375L4.035 12.695C3.58077 12.8856 3.19285 13.206 2.91981 13.616C2.64677 14.026 2.50074 14.5074 2.5 15V21.25C2.5 22.1913 3.02875 23.0025 3.79875 23.4288C3.7825 23.5113 3.75 23.5863 3.75 23.6725V26.25C3.75 26.5815 3.8817 26.8995 4.11612 27.1339C4.35054 27.3683 4.66848 27.5 5 27.5H6.25C6.58152 27.5 6.89946 27.3683 7.13388 27.1339C7.3683 26.8995 7.5 26.5815 7.5 26.25V23.75H22.5V26.25C22.5 26.5815 22.6317 26.8995 22.8661 27.1339C23.1005 27.3683 23.4185 27.5 23.75 27.5H25C25.3315 27.5 25.6495 27.3683 25.8839 27.1339C26.1183 26.8995 26.25 26.5815 26.25 26.25V23.6725C26.25 23.5863 26.2175 23.51 26.2012 23.4288C26.593 23.2152 26.9202 22.9003 27.1487 22.517C27.3771 22.1338 27.4985 21.6962 27.5 21.25V15C27.5 13.9638 26.865 13.0738 25.965 12.695ZM5 21.25V15H25L25.0025 21.25H5ZM9.30125 7.5H20.6975C21.2362 7.5 21.7137 7.8425 21.8837 8.355L23.2662 12.5H6.73375L8.115 8.355C8.19794 8.10599 8.35715 7.88941 8.57006 7.73595C8.78298 7.58249 9.03879 7.49994 9.30125 7.5Z" fill="#000033" stroke="white" stroke-width="0.5"/>
<path d="M8.125 20C9.16053 20 10 19.1605 10 18.125C10 17.0895 9.16053 16.25 8.125 16.25C7.08947 16.25 6.25 17.0895 6.25 18.125C6.25 19.1605 7.08947 20 8.125 20Z" fill="#000033"/>
<path d="M21.875 20C22.9105 20 23.75 19.1605 23.75 18.125C23.75 17.0895 22.9105 16.25 21.875 16.25C20.8395 16.25 20 17.0895 20 18.125C20 19.1605 20.8395 20 21.875 20Z" fill="#000033"/>
</svg>
