<svg width="30" height="30" viewBox="0 0 30 30" fill="none" xmlns="http://www.w3.org/2000/svg">
<path d="M15 2.34375C12.3902 2.34685 9.88823 3.38495 8.04284 5.23034C6.19745 7.07573 5.15935 9.57773 5.15625 12.1875C5.15625 14.8359 6.22266 17.7656 8.00391 20.0391C9.46875 21.9141 11.2266 23.1445 13.1016 23.6484L11.7539 27.0117C11.7239 27.0819 11.7124 27.1587 11.7206 27.2346C11.7288 27.3106 11.7564 27.3831 11.8008 27.4453C11.843 27.5095 11.9004 27.5623 11.9678 27.599C12.0353 27.6358 12.1107 27.6555 12.1875 27.6562H17.8125C17.8893 27.6555 17.9647 27.6358 18.0322 27.599C18.0996 27.5623 18.157 27.5095 18.1992 27.4453C18.2436 27.3831 18.2712 27.3106 18.2794 27.2346C18.2876 27.1587 18.2761 27.0819 18.2461 27.0117L16.8984 23.6484C18.7734 23.1445 20.5312 21.9141 21.9961 20.0391C23.7773 17.7656 24.8438 14.8359 24.8438 12.1875C24.8406 9.57773 23.8025 7.07573 21.9572 5.23034C20.1118 3.38495 17.6098 2.34685 15 2.34375ZM17.1211 26.7188H12.8789L14.0273 23.8359C14.6724 23.9297 15.3276 23.9297 15.9727 23.8359L17.1211 26.7188ZM15 22.9688C10.0664 22.9688 6.09375 17.0742 6.09375 12.1875C6.09375 9.82542 7.03208 7.56008 8.70233 5.88983C10.3726 4.21958 12.6379 3.28125 15 3.28125C17.3621 3.28125 19.6274 4.21958 21.2977 5.88983C22.9679 7.56008 23.9062 9.82542 23.9062 12.1875C23.9062 17.0742 19.9336 22.9688 15 22.9688ZM21.0117 11.168C21.0218 11.2288 21.0197 11.2909 21.0057 11.3509C20.9917 11.411 20.966 11.4676 20.9301 11.5177C20.8942 11.5677 20.8488 11.6102 20.7964 11.6427C20.7441 11.6752 20.6858 11.6971 20.625 11.707H20.543C20.4336 11.706 20.3281 11.6668 20.2447 11.5961C20.1612 11.5255 20.1051 11.428 20.0859 11.3203C19.9082 10.2628 19.4052 9.28703 18.647 8.52878C17.8888 7.77053 16.913 7.26755 15.8555 7.08984C15.7327 7.06809 15.6236 6.99845 15.5522 6.89626C15.4808 6.79407 15.4529 6.66769 15.4746 6.54492C15.4964 6.42216 15.566 6.31306 15.6682 6.24164C15.7704 6.17021 15.8968 6.14231 16.0195 6.16406C17.2678 6.37738 18.4189 6.9736 19.3134 7.87014C20.2078 8.76667 20.8013 9.91916 21.0117 11.168Z" fill="#000033" stroke="#000033"/>
</svg>
