<svg width="41" height="40" viewBox="0 0 41 40" fill="none" xmlns="http://www.w3.org/2000/svg">
<path d="M18.4346 4.28C19.4796 3.48 20.9321 3.48 21.9771 4.28L34.3821 13.7625C35.9621 14.97 35.1146 17.49 33.1296 17.5H7.27959C5.29709 17.49 4.44709 14.97 6.02959 13.7625L18.4346 4.28ZM20.2046 13.125C20.7019 13.125 21.1788 12.9275 21.5304 12.5758C21.882 12.2242 22.0796 11.7473 22.0796 11.25C22.0796 10.7527 21.882 10.2758 21.5304 9.92418C21.1788 9.57254 20.7019 9.375 20.2046 9.375C19.7073 9.375 19.2304 9.57254 18.8788 9.92418C18.5271 10.2758 18.3296 10.7527 18.3296 11.25C18.3296 11.7473 18.5271 12.2242 18.8788 12.5758C19.2304 12.9275 19.7073 13.125 20.2046 13.125ZM8.95459 20V27.5H12.7046V20H8.95459ZM15.2046 20V27.5H18.9546V20H15.2046ZM21.4546 20V27.5H25.2046V20H21.4546ZM27.7046 20V27.5H31.4546V20H27.7046ZM5.20459 33.125C5.20459 31.4 6.60459 30 8.32959 30H32.0796C33.8046 30 35.2046 31.4 35.2046 33.125V33.75C35.2046 34.0815 35.0729 34.3995 34.8385 34.6339C34.6041 34.8683 34.2861 35 33.9546 35H6.45459C6.12307 35 5.80513 34.8683 5.57071 34.6339C5.33629 34.3995 5.20459 34.0815 5.20459 33.75V33.125Z" fill="white"/>
</svg>
