<svg width="35" height="36" viewBox="0 0 35 36" fill="none" xmlns="http://www.w3.org/2000/svg">
  <g clip-path="url(#clip0_259_4944)">
    <path
      d="M30.2928 10.3212L28.2978 4.25803C28.0084 3.37547 27.4518 2.60774 26.707 2.06391C25.9621 1.52008 25.067 1.22781 24.1489 1.22864H10.8518C9.9336 1.22781 9.03851 1.52008 8.2937 2.06391C7.54888 2.60774 6.99223 3.37547 6.70283 4.25803L4.70783 10.3212C4.17789 10.5464 3.72531 10.925 3.40677 11.4095C3.08822 11.8939 2.91785 12.4628 2.91699 13.0449V20.43C2.91699 21.5422 3.53387 22.5008 4.4322 23.0045C4.41324 23.102 4.37533 23.1906 4.37533 23.2925V26.3381C4.37533 26.7299 4.52897 27.1056 4.80246 27.3826C5.07595 27.6596 5.44688 27.8152 5.83366 27.8152H7.29199C7.67877 27.8152 8.0497 27.6596 8.32319 27.3826C8.59668 27.1056 8.75033 26.7299 8.75033 26.3381V23.3841H26.2503V26.3381C26.2503 26.7299 26.404 27.1056 26.6775 27.3826C26.951 27.6596 27.3219 27.8152 27.7087 27.8152H29.167C29.5538 27.8152 29.9247 27.6596 30.1982 27.3826C30.4717 27.1056 30.6253 26.7299 30.6253 26.3381V23.2925C30.6253 23.1906 30.5874 23.1005 30.5684 23.0045C31.0255 22.7521 31.4072 22.3801 31.6738 21.9272C31.9403 21.4743 32.0819 20.9573 32.0837 20.43V13.0449C32.0837 11.8204 31.3428 10.7688 30.2928 10.3212ZM5.83366 20.43V13.0449H29.167L29.1699 20.43H5.83366ZM10.8518 4.1827H24.1474C24.776 4.1827 25.333 4.58741 25.5314 5.19299L27.1443 10.0908H7.85637L9.46783 5.19299C9.56458 4.89875 9.75033 4.64283 9.99873 4.4615C10.2471 4.28017 10.5456 4.18262 10.8518 4.1827Z"
      fill="white" />
    <path
      d="M9.47949 18.953C10.6876 18.953 11.667 17.961 11.667 16.7374C11.667 15.5138 10.6876 14.5219 9.47949 14.5219C8.27137 14.5219 7.29199 15.5138 7.29199 16.7374C7.29199 17.961 8.27137 18.953 9.47949 18.953Z"
      fill="white" />
    <path
      d="M25.5205 18.953C26.7286 18.953 27.708 17.961 27.708 16.7374C27.708 15.5138 26.7286 14.5219 25.5205 14.5219C24.3124 14.5219 23.333 15.5138 23.333 16.7374C23.333 17.961 24.3124 18.953 25.5205 18.953Z"
      fill="white" />
  </g>
  <defs>
    <clipPath id="clip0_259_4944">
      <rect width="35" height="35.4487" fill="white" transform="translate(0 0.384613)" />
    </clipPath>
  </defs>
</svg>