<svg width="24" height="25" viewBox="0 0 24 25" fill="none" xmlns="http://www.w3.org/2000/svg">
<rect y="0.666321" width="24" height="23.8768" rx="4" fill="#F8FAFC"/>
<path d="M13.4099 12.6047L17.7099 8.33676C17.8982 8.14943 18.004 7.89534 18.004 7.63041C18.004 7.36547 17.8982 7.11139 17.7099 6.92405C17.5216 6.73671 17.2662 6.63147 16.9999 6.63147C16.7336 6.63147 16.4782 6.73671 16.2899 6.92405L11.9999 11.202L7.70994 6.92405C7.52164 6.73671 7.26624 6.63147 6.99994 6.63147C6.73364 6.63147 6.47824 6.73671 6.28994 6.92405C6.10164 7.11139 5.99585 7.36547 5.99585 7.63041C5.99585 7.89534 6.10164 8.14943 6.28994 8.33676L10.5899 12.6047L6.28994 16.8727C6.19621 16.9652 6.12182 17.0752 6.07105 17.1965C6.02028 17.3177 5.99414 17.4477 5.99414 17.5791C5.99414 17.7104 6.02028 17.8404 6.07105 17.9617C6.12182 18.0829 6.19621 18.1929 6.28994 18.2854C6.3829 18.3787 6.4935 18.4527 6.61536 18.5032C6.73722 18.5537 6.86793 18.5797 6.99994 18.5797C7.13195 18.5797 7.26266 18.5537 7.38452 18.5032C7.50638 18.4527 7.61698 18.3787 7.70994 18.2854L11.9999 14.0075L16.2899 18.2854C16.3829 18.3787 16.4935 18.4527 16.6154 18.5032C16.7372 18.5537 16.8679 18.5797 16.9999 18.5797C17.132 18.5797 17.2627 18.5537 17.3845 18.5032C17.5064 18.4527 17.617 18.3787 17.7099 18.2854C17.8037 18.1929 17.8781 18.0829 17.9288 17.9617C17.9796 17.8404 18.0057 17.7104 18.0057 17.5791C18.0057 17.4477 17.9796 17.3177 17.9288 17.1965C17.8781 17.0752 17.8037 16.9652 17.7099 16.8727L13.4099 12.6047Z" fill="black"/>
</svg>
