<svg width="11" height="9" viewBox="0 0 11 9" fill="none" xmlns="http://www.w3.org/2000/svg">
<path d="M8.61061 1.54956C8.66724 1.49178 8.73483 1.44588 8.80942 1.41454C8.88401 1.38321 8.9641 1.36707 9.04501 1.36707C9.12591 1.36707 9.206 1.38321 9.28059 1.41454C9.35518 1.44588 9.42277 1.49178 9.4794 1.54956C9.71672 1.78937 9.72004 2.17688 9.4877 2.42084L4.58117 8.22105C4.52546 8.28223 4.45786 8.33139 4.3825 8.36554C4.30714 8.39969 4.2256 8.4181 4.14288 8.41965C4.06016 8.42121 3.97799 8.40587 3.9014 8.37457C3.82481 8.34328 3.75541 8.29669 3.69744 8.23765L0.711869 5.21224C0.596725 5.09482 0.532227 4.93692 0.532227 4.77246C0.532227 4.608 0.596725 4.4501 0.711869 4.33267C0.768498 4.27489 0.836087 4.22899 0.910676 4.19765C0.985266 4.16631 1.06536 4.15017 1.14626 4.15017C1.22717 4.15017 1.30726 4.16631 1.38185 4.19765C1.45644 4.22899 1.52403 4.27489 1.58066 4.33267L4.11317 6.8992L8.59402 1.56782C8.59918 1.56141 8.60472 1.55531 8.61061 1.54956Z" fill="white" stroke="white" stroke-width="0.829787"/>
</svg>
