<svg width="35" height="35" viewBox="0 0 35 35" fill="none" xmlns="http://www.w3.org/2000/svg">
<path d="M30.2928 9.81083L28.2978 3.82437C28.0084 2.95299 27.4518 2.19497 26.707 1.65803C25.9621 1.12108 25.067 0.832514 24.1489 0.83333H10.8518C9.9336 0.832514 9.03851 1.12108 8.2937 1.65803C7.54888 2.19497 6.99223 2.95299 6.70283 3.82437L4.70783 9.81083C4.17789 10.0332 3.72531 10.4069 3.40677 10.8853C3.08822 11.3636 2.91785 11.9253 2.91699 12.5V19.7917C2.91699 20.8898 3.53387 21.8362 4.4322 22.3335C4.41324 22.4298 4.37533 22.5173 4.37533 22.6179V25.625C4.37533 26.0118 4.52897 26.3827 4.80246 26.6562C5.07595 26.9297 5.44688 27.0833 5.83366 27.0833H7.29199C7.67877 27.0833 8.0497 26.9297 8.32319 26.6562C8.59668 26.3827 8.75033 26.0118 8.75033 25.625V22.7083H26.2503V25.625C26.2503 26.0118 26.404 26.3827 26.6775 26.6562C26.951 26.9297 27.3219 27.0833 27.7087 27.0833H29.167C29.5538 27.0833 29.9247 26.9297 30.1982 26.6562C30.4717 26.3827 30.6253 26.0118 30.6253 25.625V22.6179C30.6253 22.5173 30.5874 22.4283 30.5684 22.3335C31.0255 22.0844 31.4072 21.717 31.6738 21.2699C31.9403 20.8227 32.0819 20.3122 32.0837 19.7917V12.5C32.0837 11.291 31.3428 10.2527 30.2928 9.81083ZM5.83366 19.7917V12.5H29.167L29.1699 19.7917H5.83366ZM10.8518 3.75H24.1474C24.776 3.75 25.333 4.14958 25.5314 4.7475L27.1443 9.58333H7.85637L9.46783 4.7475C9.56458 4.45699 9.75033 4.2043 9.99873 4.02527C10.2471 3.84623 10.5456 3.74992 10.8518 3.75Z" fill="white" stroke="#2C2B30"/>
<path d="M9.47949 18.3333C10.6876 18.3333 11.667 17.354 11.667 16.1458C11.667 14.9377 10.6876 13.9583 9.47949 13.9583C8.27137 13.9583 7.29199 14.9377 7.29199 16.1458C7.29199 17.354 8.27137 18.3333 9.47949 18.3333Z" fill="white"/>
<path d="M25.5205 18.3333C26.7286 18.3333 27.708 17.354 27.708 16.1458C27.708 14.9377 26.7286 13.9583 25.5205 13.9583C24.3124 13.9583 23.333 14.9377 23.333 16.1458C23.333 17.354 24.3124 18.3333 25.5205 18.3333Z" fill="white"/>
</svg>
