<svg width="14" height="14" viewBox="0 0 14 14" fill="none" xmlns="http://www.w3.org/2000/svg">
<path d="M10.6106 3.54956C10.6672 3.49178 10.7348 3.44588 10.8094 3.41454C10.884 3.38321 10.9641 3.36707 11.045 3.36707C11.1259 3.36707 11.206 3.38321 11.2806 3.41454C11.3552 3.44588 11.4228 3.49178 11.4794 3.54956C11.7167 3.78937 11.72 4.17688 11.4877 4.42084L6.58117 10.2211C6.52546 10.2822 6.45786 10.3314 6.3825 10.3655C6.30714 10.3997 6.2256 10.4181 6.14288 10.4197C6.06016 10.4212 5.97799 10.4059 5.9014 10.3746C5.82481 10.3433 5.75541 10.2967 5.69744 10.2376L2.71187 7.21224C2.59673 7.09482 2.53223 6.93692 2.53223 6.77246C2.53223 6.608 2.59673 6.4501 2.71187 6.33267C2.7685 6.27489 2.83609 6.22899 2.91068 6.19765C2.98527 6.16631 3.06536 6.15017 3.14626 6.15017C3.22717 6.15017 3.30726 6.16631 3.38185 6.19765C3.45644 6.22899 3.52403 6.27489 3.58066 6.33267L6.11317 8.8992L10.594 3.56782C10.5992 3.56141 10.6047 3.55531 10.6106 3.54956Z" fill="white" stroke="white" stroke-width="0.829787"/>
</svg>
