<svg width="26" height="26" viewBox="0 0 26 26" fill="none" xmlns="http://www.w3.org/2000/svg">
<rect x="0.5" y="0.5" width="25" height="25" rx="6.5" fill="#F15223" stroke="#F15223"/>
<path d="M17.736 8.97006C17.8042 8.90042 17.8857 8.8451 17.9756 8.80734C18.0655 8.76957 18.162 8.75012 18.2595 8.75012C18.357 8.75012 18.4535 8.76957 18.5434 8.80734C18.6333 8.8451 18.7147 8.90042 18.783 8.97006C19.069 9.25906 19.073 9.72606 18.793 10.0201L12.88 17.0101C12.8128 17.0838 12.7314 17.143 12.6406 17.1842C12.5497 17.2253 12.4515 17.2475 12.3518 17.2494C12.2521 17.2513 12.1531 17.2328 12.0608 17.1951C11.9685 17.1574 11.8848 17.1012 11.815 17.0301L8.21698 13.3841C8.07822 13.2425 8.00049 13.0523 8.00049 12.8541C8.00049 12.6559 8.07822 12.4656 8.21698 12.3241C8.28523 12.2544 8.36668 12.1991 8.45657 12.1613C8.54646 12.1236 8.64298 12.1041 8.74048 12.1041C8.83798 12.1041 8.9345 12.1236 9.02439 12.1613C9.11428 12.1991 9.19573 12.2544 9.26398 12.3241L12.316 15.4171L17.716 8.99206C17.7222 8.98433 17.7289 8.97698 17.736 8.97006Z" fill="white" stroke="white"/>
</svg>
