<svg width="35" height="35" viewBox="0 0 35 35" fill="none" xmlns="http://www.w3.org/2000/svg">
<path d="M20.3485 2.21212H20.3545H20.3485ZM20.3485 2.21212L17.8805 15.1791L26.8214 15.2092L14.6512 32.7879L17.1193 18.5221L8.17896 18.4909L20.3485 2.21212ZM20.3502 0.0246503C20.2911 0.0246503 20.2321 0.0268036 20.1741 0.0311444C19.7881 0.0623505 19.5321 0.191413 19.2286 0.395397C19.0577 0.509332 18.9036 0.646657 18.7709 0.803366C18.731 0.850399 18.6934 0.899309 18.6582 0.949929L6.40107 17.1719C5.91708 17.8352 5.84599 18.7108 6.21786 19.4425C6.58919 20.1743 7.34005 20.638 8.1631 20.644L14.4773 20.69L12.4922 32.386C12.3035 33.3911 12.8394 34.393 13.7828 34.7966C14.0569 34.9144 14.3522 34.9751 14.6506 34.9749C15.3381 34.9749 15.903 34.6533 16.3268 34.0725L28.5993 16.4938C29.0833 15.8304 29.1538 14.9537 28.7825 14.2231C28.4111 13.4914 27.6603 13.0276 26.8372 13.0216L20.523 13.0107L22.4868 2.72669C22.5285 2.55833 22.5494 2.38552 22.5492 2.21208C22.5492 1.02864 21.6069 0.0639569 20.4279 0.0256757C20.4016 0.0245819 20.3759 0.0245819 20.3502 0.0245819L20.3502 0.0246503Z" fill="white"/>
</svg>
