<svg width="41" height="40" viewBox="0 0 41 40" fill="none" xmlns="http://www.w3.org/2000/svg">
<path fill-rule="evenodd" clip-rule="evenodd" d="M20.6025 3.33334C15.9367 3.33334 12.1303 7.00383 12.1303 11.5625C12.1303 16.1212 15.9367 19.7917 20.6025 19.7917C25.2683 19.7917 29.0748 16.1212 29.0748 11.5625C29.0748 7.00382 25.2683 3.33334 20.6025 3.33334ZM20.6024 6.66673C23.4539 6.66673 25.7414 8.87251 25.7414 11.5626C25.7414 14.2526 23.4539 16.4584 20.6024 16.4584C17.7511 16.4584 15.4636 14.2526 15.4636 11.5626C15.4636 8.87251 17.7511 6.66673 20.6024 6.66673ZM15.6843 22.0695L15.3377 22.1267C10.679 22.8948 7.26904 27.0241 7.26904 31.8525C7.26904 34.4994 9.36703 36.6666 11.9826 36.6666H29.2222C31.8377 36.6666 33.9357 34.4993 33.9357 31.8525C33.9357 27.0241 30.5258 22.8948 25.8668 22.1267L25.5205 22.0695C22.2625 21.5324 18.9423 21.5324 15.6843 22.0695ZM24.9782 25.3584L25.3242 25.4155C28.3546 25.9151 30.6023 28.6371 30.6023 31.8524C30.6023 32.6821 29.972 33.3332 29.2221 33.3332H11.9825C11.2326 33.3332 10.6023 32.6822 10.6023 31.8524C10.6023 28.6371 12.8501 25.9151 15.8802 25.4155L16.2268 25.3583C19.1254 24.8805 22.0792 24.8805 24.9782 25.3584Z" fill="white"/>
<circle cx="20.6026" cy="12.3077" r="6.15385" fill="white"/>
<ellipse cx="20.6021" cy="29.2308" rx="12.3077" ry="6.15385" fill="white"/>
</svg>
