<svg width="42" height="33" viewBox="0 0 42 33" fill="none" xmlns="http://www.w3.org/2000/svg">
<path d="M21 16C16.8022 16 13.4 12.6426 13.4 8.5C13.4 4.35742 16.8022 1 21 1C25.1978 1 28.6 4.35742 28.6 8.5C28.6 12.6426 25.1978 16 21 16ZM4.375 4.75C5.68719 4.75 6.75 5.79883 6.75 7.09375V16.4805C6.75 17.4766 7.14781 18.4316 7.86031 19.1348L10.8944 22.1289C11.3872 22.6152 12.1591 22.6914 12.735 22.3105C13.5009 21.8066 13.6078 20.7344 12.9547 20.0957L12.0522 19.2051L10.1522 17.3301C9.41 16.5977 9.41 15.4082 10.1522 14.6758C10.8944 13.9434 12.0997 13.9434 12.8419 14.6758L14.7419 16.5508L15.6444 17.4414L17.1466 18.9238C18.3934 20.1543 19.0941 21.8242 19.0941 23.5645V28.1875C19.0941 29.7402 17.8175 31 16.2441 31H12.2897C11.2803 31 10.3125 30.6074 9.6 29.9043L3.66844 24.0508C2.59969 22.9961 2 21.5664 2 20.0723V7.09375C2 5.79883 3.06281 4.75 4.375 4.75ZM37.625 4.75C38.9372 4.75 40 5.79883 40 7.09375V20.0723C40 21.5664 39.4003 22.9961 38.3316 24.0508L32.4 29.9043C31.6875 30.6074 30.7197 31 29.7103 31H25.75C24.1766 31 22.9 29.7402 22.9 28.1875V23.5645C22.9 21.8242 23.6006 20.1543 24.8475 18.9238L26.3497 17.4414L27.2522 16.5508L29.1522 14.6758C29.8944 13.9434 31.0997 13.9434 31.8419 14.6758C32.5841 15.4082 32.5841 16.5977 31.8419 17.3301L29.9419 19.2051L29.0394 20.0957C28.3862 20.7402 28.4931 21.8066 29.2591 22.3105C29.835 22.6914 30.6069 22.6152 31.0997 22.1289L34.1338 19.1348C34.8463 18.4316 35.2441 17.4766 35.2441 16.4805V7.09375C35.2441 5.79883 36.3069 4.75 37.6191 4.75H37.625Z" stroke="white" stroke-width="2"/>
</svg>
