<svg width="35" height="35" viewBox="0 0 35 35" fill="none" xmlns="http://www.w3.org/2000/svg">
<path d="M12.0312 27.3438V6.5625L26.25 3.28125V25.1562M12.0312 14.2188L26.25 10.9375" stroke="white" stroke-width="2" stroke-linecap="round" stroke-linejoin="round"/>
<path d="M7.65625 32.8125C10.0725 32.8125 12.0312 30.3641 12.0312 27.3438C12.0312 24.3234 10.0725 21.875 7.65625 21.875C5.24 21.875 3.28125 24.3234 3.28125 27.3438C3.28125 30.3641 5.24 32.8125 7.65625 32.8125Z" stroke="white" stroke-width="2" stroke-linecap="round" stroke-linejoin="round"/>
<path d="M21.875 30.625C24.2912 30.625 26.25 28.1766 26.25 25.1562C26.25 22.1359 24.2912 19.6875 21.875 19.6875C19.4588 19.6875 17.5 22.1359 17.5 25.1562C17.5 28.1766 19.4588 30.625 21.875 30.625Z" stroke="white" stroke-width="2" stroke-linecap="round" stroke-linejoin="round"/>
</svg>
