<svg width="75" height="75" viewBox="0 0 75 75" fill="none" xmlns="http://www.w3.org/2000/svg">
<path d="M67.8605 30.8556C67.8605 30.8372 67.8605 30.8372 67.8605 30.8188C67.8605 30.782 67.8605 30.7268 67.8605 30.69C67.8605 30.6716 67.8605 30.6716 67.8605 30.6532C67.8605 30.6163 67.8421 30.5611 67.8421 30.5243V30.5059C67.8236 30.4691 67.8237 30.4139 67.8052 30.3771V30.3587C67.7684 30.2666 67.7316 30.1746 67.6764 30.0826C67.6396 30.0274 67.6212 29.9906 67.5844 29.9537L67.566 29.9353C67.5292 29.8985 67.5108 29.8617 67.4739 29.8433L67.4555 29.8249C67.4187 29.7881 67.4003 29.7697 67.3635 29.7513C67.3635 29.7513 67.3635 29.7513 67.3451 29.7329L59.7253 24.0456V9.22922C59.7253 8.4746 59.0995 7.84882 58.3448 7.84882H16.6933C15.9387 7.84882 15.3129 8.4746 15.3129 9.22922V24.0456L7.69309 29.7329C7.69309 29.7329 7.69309 29.7329 7.67468 29.7513C7.63787 29.7697 7.60106 29.8065 7.58265 29.8433L7.56425 29.8617C7.52744 29.8985 7.50903 29.9169 7.47222 29.9537L7.45382 29.9722C7.41701 30.009 7.38019 30.0642 7.36179 30.101C7.30657 30.193 7.26976 30.285 7.23295 30.3771V30.3955C7.21454 30.4323 7.19614 30.4875 7.19614 30.5243V30.5427C7.17773 30.5795 7.17773 30.6347 7.17773 30.6716C7.17773 30.69 7.17773 30.69 7.17773 30.7084C7.17773 30.7452 7.17773 30.8004 7.17773 30.8372C7.17773 30.8372 7.17773 30.8372 7.17773 30.8556V30.874V30.8924V65.7707C7.17773 66.5254 7.80352 67.1511 8.55814 67.1511H66.5169C67.2715 67.1511 67.8973 66.5254 67.8973 65.7707V30.8556C67.8605 30.8556 67.8605 30.8556 67.8605 30.8556ZM64.0505 30.7452L59.67 33.5796V27.469L64.0505 30.7452ZM56.9092 10.5912V35.3649L37.4915 47.9175L18.0738 35.3649V10.5912H56.9092ZM15.3129 33.5796L10.9324 30.7452L15.3129 27.469V33.5796ZM9.88333 64.3719V33.3588L36.7369 50.7151C36.9577 50.8623 37.2338 50.936 37.4915 50.936C37.7492 50.936 38.0068 50.8623 38.2461 50.7151L65.0996 33.3588V64.3535H9.88333V64.3719Z" fill="white"/>
<path d="M36.5718 41.9539C39.0197 41.9539 41.0627 41.549 43.0689 40.4999L42.4799 38.9355C40.9891 39.7821 39.0565 40.2054 36.9767 40.2054C31.5839 40.2054 27.6083 36.4507 27.6083 30.3585C27.6083 22.9595 32.6146 18.2477 38.5596 18.2477C44.21 18.2477 47.3942 22.0393 47.3942 27.3216C47.3942 31.5549 45.3144 34.0396 43.4554 34.0028C42.2591 33.966 41.8173 32.696 42.3695 29.9168L43.6027 23.3092C42.6456 22.8675 41.2652 22.5362 39.7007 22.5362C34.6392 22.5362 31.0501 26.659 31.0501 31.1868C31.0501 34.0764 32.8723 35.7881 34.9889 35.7881C37.1792 35.7881 38.8541 34.739 40.124 32.5856H40.2713C40.1608 34.8126 41.5044 35.7881 42.9769 35.7881C46.4003 35.7881 49.474 32.5856 49.474 27.1008C49.474 21.0086 45.2039 16.5544 38.8541 16.5544C30.7557 16.5544 25.5469 23.0516 25.5469 30.561C25.5285 37.5735 30.59 41.9539 36.5718 41.9539ZM40.3081 28.8493C39.9032 31.1131 37.9706 33.8187 35.854 33.8187C34.2527 33.8187 33.4429 32.6592 33.4429 31.0395C33.4429 27.5057 36.038 24.4688 39.2406 24.4688C40.0872 24.4688 40.6946 24.616 41.0627 24.7265L40.3081 28.8493Z" fill="white"/>
</svg>
