<svg width="30" height="30" viewBox="0 0 30 30" fill="none" xmlns="http://www.w3.org/2000/svg">
<path d="M13.5939 15C13.5939 15.373 13.7421 15.7306 14.0058 15.9944C14.2695 16.2581 14.6272 16.4062 15.0002 16.4062C15.3731 16.4062 15.7308 16.2581 15.9945 15.9944C16.2583 15.7306 16.4064 15.373 16.4064 15C16.4064 14.627 16.2583 14.2694 15.9945 14.0056C15.7308 13.7419 15.3731 13.5938 15.0002 13.5938C14.6272 13.5938 14.2695 13.7419 14.0058 14.0056C13.7421 14.2694 13.5939 14.627 13.5939 15ZM19.4533 15C19.4533 15.373 19.6014 15.7306 19.8652 15.9944C20.1289 16.2581 20.4866 16.4062 20.8595 16.4062C21.2325 16.4062 21.5902 16.2581 21.8539 15.9944C22.1176 15.7306 22.2658 15.373 22.2658 15C22.2658 14.627 22.1176 14.2694 21.8539 14.0056C21.5902 13.7419 21.2325 13.5938 20.8595 13.5938C20.4866 13.5938 20.1289 13.7419 19.8652 14.0056C19.6014 14.2694 19.4533 14.627 19.4533 15ZM7.73454 15C7.73454 15.373 7.8827 15.7306 8.14642 15.9944C8.41014 16.2581 8.76783 16.4062 9.14079 16.4062C9.51375 16.4062 9.87144 16.2581 10.1352 15.9944C10.3989 15.7306 10.547 15.373 10.547 15C10.547 14.627 10.3989 14.2694 10.1352 14.0056C9.87144 13.7419 9.51375 13.5938 9.14079 13.5938C8.76783 13.5938 8.41014 13.7419 8.14642 14.0056C7.8827 14.2694 7.73454 14.627 7.73454 15ZM27.1056 9.91406C26.4435 8.34082 25.4943 6.92871 24.2843 5.71582C23.0828 4.50995 21.6565 3.55143 20.0861 2.89453C18.4748 2.21777 16.7638 1.875 15.0002 1.875H14.9416C13.1662 1.88379 11.4465 2.23535 9.82927 2.92676C8.27231 3.59039 6.85934 4.55062 5.66911 5.75391C4.47087 6.96387 3.53044 8.37012 2.88005 9.9375C2.20622 11.5605 1.86638 13.2861 1.87517 15.0615C1.88511 17.0961 2.36645 19.1007 3.28142 20.918V25.3711C3.28142 25.7285 3.4234 26.0713 3.67614 26.324C3.92887 26.5768 4.27165 26.7188 4.62907 26.7188H9.08513C10.9024 27.6337 12.907 28.1151 14.9416 28.125H15.0031C16.758 28.125 18.4601 27.7852 20.0627 27.1201C21.6251 26.471 23.0462 25.5237 24.2463 24.3311C25.4562 23.1328 26.4084 21.7324 27.0734 20.1709C27.7648 18.5537 28.1164 16.834 28.1252 15.0586C28.134 13.2744 27.7882 11.543 27.1056 9.91406ZM22.6789 22.7461C20.6252 24.7793 17.9006 25.8984 15.0002 25.8984H14.9504C13.1838 25.8896 11.4289 25.4502 9.87907 24.624L9.63298 24.4922H5.50798V20.3672L5.37614 20.1211C4.54997 18.5713 4.11052 16.8164 4.10173 15.0498C4.09001 12.1289 5.20622 9.38672 7.25407 7.32129C9.29899 5.25586 12.0324 4.11328 14.9533 4.10156H15.0031C16.4679 4.10156 17.8888 4.38574 19.2277 4.94824C20.5343 5.49609 21.7062 6.28418 22.714 7.29199C23.7189 8.29688 24.5099 9.47168 25.0578 10.7783C25.6261 12.1318 25.9103 13.5674 25.9045 15.0498C25.8869 17.9678 24.7414 20.7012 22.6789 22.7461Z" fill="#000033"/>
</svg>
