<svg width="100" height="100" viewBox="0 0 100 100" fill="none" xmlns="http://www.w3.org/2000/svg">
<g clip-path="url(#clip0_259_2424)">
<path d="M49.7637 12.7379C50.5729 12.7379 51.2285 12.082 51.2285 11.273V1.46484C51.2285 0.655859 50.5729 0 49.7637 0C48.9545 0 48.2988 0.655859 48.2988 1.46484V11.273C48.2988 12.082 48.9545 12.7379 49.7637 12.7379Z" fill="black"/>
<path d="M34.0159 14.7602C34.3054 15.0898 34.7101 15.2582 35.1169 15.2582C35.4603 15.2582 35.805 15.1383 36.0831 14.8938C36.6907 14.3598 36.7507 13.4342 36.2167 12.8266L29.7351 5.44942C29.2013 4.8418 28.2753 4.78184 27.6679 5.31582C27.0603 5.84981 27.0003 6.77539 27.5343 7.38301L34.0159 14.7602Z" fill="black"/>
<path d="M32.3849 77.7673L31.565 72.6823C31.4362 71.8837 30.6847 71.3401 29.8855 71.4694C29.0868 71.5981 28.5439 72.3501 28.6726 73.1487L29.4855 78.1901C29.8765 82.1495 28.4468 83.8954 26.6386 86.104L26.5403 86.2241L14.6329 97.47C14.0446 98.0255 14.0183 98.9526 14.5737 99.5407C14.8618 99.8458 15.2499 99.9999 15.6388 99.9999C15.9997 99.9999 16.3612 99.8672 16.6443 99.6001L28.6198 88.2897C28.6655 88.2465 28.7085 88.2005 28.7484 88.1516L28.905 87.9602C30.7888 85.6594 32.9237 83.0518 32.3958 77.8526C32.3933 77.8239 32.3896 77.7956 32.3849 77.7673Z" fill="black"/>
<path d="M69.9161 63.4966C69.9117 63.5187 69.9076 63.5408 69.904 63.563L69.4021 66.6619C69.2728 67.4605 69.8152 68.2126 70.6138 68.3421C70.6931 68.355 70.772 68.3613 70.8497 68.3613C71.5556 68.3613 72.1775 67.8498 72.2941 67.1304L72.791 64.064C73.8624 58.888 71.6566 54.3531 69.8835 50.7076C69.3632 49.6378 68.8718 48.6277 68.5447 47.7521L59.7038 24.0748C58.921 21.4925 57.2281 19.7222 55.0529 19.2138C53.2099 18.7837 51.2829 19.3502 50.0003 20.691C48.7169 19.35 46.7886 18.7834 44.9447 19.214C42.7683 19.7226 41.0751 21.4927 40.2927 24.075L31.4578 47.7515C31.1302 48.6277 30.639 49.638 30.1187 50.7076C28.3456 54.3529 26.1402 58.8878 27.2113 64.0634L27.7023 67.1177C27.8181 67.8378 28.4402 68.3503 29.1468 68.3501C29.2242 68.3501 29.3023 68.3441 29.381 68.3314C30.1798 68.2029 30.7232 67.4513 30.5949 66.6527L30.0984 63.565C30.0945 63.5423 30.0904 63.5195 30.0859 63.497C29.2031 59.288 31.0892 55.4103 32.7533 51.9892C33.3046 50.8552 33.8257 49.7841 34.2023 48.7767L43.0542 25.0544C43.066 25.0232 43.0765 24.9918 43.0859 24.9599C43.5605 23.3642 44.4572 22.3369 45.6115 22.0671C46.4591 21.8689 47.3396 22.1269 47.9089 22.7402C48.5618 23.4437 48.7105 24.5029 48.3277 25.7226C48.3206 25.7445 48.3144 25.7668 48.3085 25.7888L43.3476 44.6527C41.0779 45.5078 39.4587 47.6992 39.4587 50.2621V58.6126C39.4587 60.0558 38.8855 61.6746 37.7066 63.5611C37.2779 64.2472 37.4865 65.1509 38.1726 65.5796C38.414 65.7304 38.6822 65.8025 38.9476 65.8025C39.4359 65.8025 39.9132 65.5583 40.1911 65.1138C41.6697 62.7478 42.3884 60.6214 42.3884 58.6128V50.2623C42.3884 48.573 43.7656 47.1984 45.4583 47.1984C47.1542 47.1984 48.5337 48.5728 48.5337 50.2623V59.5865V76.132C48.5337 79.8503 48.3134 82.6009 45.3699 86.789C45.3605 86.8023 45.3513 86.8158 45.3423 86.8294L38.2085 97.7337C37.7656 98.4107 37.9554 99.3185 38.6324 99.7615C38.8798 99.9234 39.1579 100.001 39.4331 100.001C39.9109 100.001 40.3792 99.7673 40.6603 99.3376L47.781 88.4533C48.754 87.0664 49.471 85.7943 49.9995 84.5912C50.5279 85.7935 51.2441 87.0654 52.216 88.4529L59.3372 99.3376C59.6183 99.7673 60.0867 100.001 60.5644 100.001C60.8394 100.001 61.1177 99.9234 61.3652 99.7615C62.0421 99.3185 62.232 98.4105 61.789 97.7337L54.655 86.8294C54.6462 86.8162 54.6374 86.8031 54.6283 86.79C51.6839 82.5931 51.4636 79.8451 51.4636 76.1318V59.5863V50.2621C51.4636 48.5728 52.8433 47.1982 54.5392 47.1982C56.2351 47.1982 57.6146 48.5726 57.6146 50.2621V58.6126C57.6146 60.6212 58.3333 62.7476 59.8119 65.1136C60.0898 65.5583 60.5671 65.8023 61.0554 65.8023C61.3204 65.8023 61.5888 65.7304 61.8304 65.5794C62.5165 65.1507 62.7251 64.247 62.2964 63.5609C61.1175 61.6744 60.5443 60.0556 60.5443 58.6124V50.2619C60.5443 47.7005 58.9255 45.5101 56.6558 44.6541L51.6945 25.7886C51.6888 25.7666 51.6824 25.7443 51.6753 25.7224C51.2923 24.5019 51.441 23.4425 52.0939 22.7388C52.662 22.1267 53.541 21.8693 54.3869 22.0669C55.5402 22.3363 56.4367 23.3638 56.9115 24.9599C56.9208 24.9919 56.9316 25.0236 56.9431 25.0548L65.8009 48.7777C66.1773 49.7841 66.6984 50.8552 67.2497 51.9892C68.913 55.4099 70.799 59.2876 69.9161 63.4966ZM53.5462 44.3513C52.1376 44.5861 50.8943 45.3117 49.998 46.3457C49.1027 45.313 47.8615 44.588 46.455 44.3523L50.0007 30.8701L53.5462 44.3513Z" fill="black"/>
<path d="M85.3684 97.47L73.4604 86.2235L73.3743 86.1184C71.559 83.9071 70.1239 82.1589 70.5159 78.1901L71.3287 73.1487C71.4575 72.3501 70.9145 71.5981 70.1159 71.4694C69.3151 71.3395 68.5651 71.8839 68.4364 72.6823L67.6164 77.7673C67.6119 77.7956 67.608 77.8239 67.6051 77.8524C67.076 83.0634 69.219 85.6739 71.1096 87.9772L71.2537 88.153C71.2932 88.2011 71.3358 88.2466 71.3809 88.2893L83.3565 99.5997C83.6395 99.8671 84.001 99.9995 84.3619 99.9995C84.7508 99.9995 85.1391 99.8454 85.427 99.5403C85.9832 98.9526 85.9567 98.0257 85.3684 97.47Z" fill="black"/>
<path d="M19.197 26.0926L28.7853 28.2734C28.8946 28.2982 29.0038 28.3101 29.1114 28.3101C29.78 28.3101 30.3839 27.8494 30.5386 27.1699C30.7179 26.381 30.2239 25.5961 29.4351 25.4166L19.8468 23.2357C19.0581 23.056 18.273 23.5504 18.0935 24.3391C17.914 25.1281 18.4081 25.9131 19.197 26.0926Z" fill="black"/>
<path d="M63.4492 14.8937C63.7275 15.1381 64.072 15.2582 64.4154 15.2582C64.822 15.2582 65.2269 15.0898 65.5166 14.7601L71.998 7.383C72.5318 6.77519 72.472 5.8496 71.8642 5.31581C71.2564 4.78202 70.3308 4.84159 69.7968 5.4494L63.3154 12.8266C62.7816 13.4344 62.8416 14.3598 63.4492 14.8937Z" fill="black"/>
<path d="M68.9899 27.1699C69.1446 27.8494 69.7485 28.3101 70.417 28.3101C70.5247 28.3101 70.6338 28.2982 70.7432 28.2734L80.3315 26.0925C81.1204 25.9132 81.6143 25.1281 81.435 24.3392C81.2555 23.5503 80.4704 23.0562 79.6817 23.2359L70.0934 25.4168C69.3045 25.5961 68.8106 26.381 68.9899 27.1699Z" fill="black"/>
</g>
<defs>
<clipPath id="clip0_259_2424">
<rect width="100" height="100" fill="white"/>
</clipPath>
</defs>
</svg>
