<svg width="20" height="20" viewBox="0 0 20 20" fill="none" xmlns="http://www.w3.org/2000/svg">
<rect y="1" width="18" height="18" rx="9" fill="#F15223"/>
<path d="M6.00024 7.54679C5.99872 7.58277 6.00453 7.61868 6.01731 7.65231C6.03009 7.68595 6.04956 7.71659 6.07453 7.74237C6.09951 7.76814 6.12945 7.7885 6.16253 7.80219C6.1956 7.81588 6.23111 7.82261 6.26687 7.82197H7.17961C7.33229 7.82197 7.45399 7.69608 7.4739 7.54345C7.57347 6.81261 8.07133 6.28008 8.95863 6.28008C9.71759 6.28008 10.4124 6.66221 10.4124 7.58133C10.4124 8.28877 9.9986 8.61408 9.34475 9.10873C8.60017 9.65352 8.01048 10.2897 8.05252 11.3224L8.05584 11.5642C8.057 11.6373 8.08666 11.707 8.1384 11.7582C8.19015 11.8095 8.25984 11.8382 8.33243 11.8382H9.22969C9.30304 11.8382 9.37339 11.8089 9.42526 11.7567C9.47713 11.7044 9.50627 11.6336 9.50627 11.5597V11.4427C9.50627 10.6428 9.80831 10.41 10.6237 9.78721C11.2975 9.27139 12 8.69875 12 7.49666C12 5.81328 10.5883 5 9.04271 5C7.64096 5 6.10534 5.65731 6.00024 7.54679ZM7.72283 13.9672C7.72283 14.5611 8.19303 15 8.84025 15C9.51402 15 9.97758 14.5611 9.97758 13.9672C9.97758 13.3523 9.51291 12.92 8.83914 12.92C8.19303 12.92 7.72283 13.3523 7.72283 13.9672Z" fill="white"/>
</svg>
