<svg width="20" height="20" viewBox="0 0 20 20" fill="none" xmlns="http://www.w3.org/2000/svg">
<g clip-path="url(#clip0_282_1301)">
<path fill-rule="evenodd" clip-rule="evenodd" d="M1.29237 10.9001C1.1862 10.794 1.12656 10.65 1.12655 10.4998C1.12656 10.3497 1.1862 10.2057 1.29237 10.0995L6.09621 5.29566C6.20238 5.18949 6.34638 5.12985 6.49653 5.12985C6.64667 5.12985 6.79067 5.18949 6.89685 5.29566C7.00302 5.40184 7.06266 5.54584 7.06266 5.69598C7.06266 5.84613 7.00302 5.99013 6.89685 6.0963L3.05938 9.93377L19.3067 9.93296C19.3812 9.93296 19.4549 9.94763 19.5237 9.97611C19.5924 10.0046 19.6549 10.0464 19.7076 10.099C19.7602 10.1516 19.802 10.2141 19.8305 10.2829C19.8589 10.3517 19.8736 10.4254 19.8736 10.4998C19.8736 10.5743 19.8589 10.648 19.8305 10.7167C19.802 10.7855 19.7602 10.848 19.7076 10.9006C19.6549 10.9533 19.5924 10.995 19.5237 11.0235C19.4549 11.052 19.3812 11.0667 19.3067 11.0667L3.05938 11.0659L6.89685 14.9033C7.00302 15.0095 7.06266 15.1535 7.06266 15.3036C7.06266 15.4538 7.00302 15.5978 6.89685 15.704C6.79067 15.8101 6.64667 15.8698 6.49653 15.8698C6.34638 15.8698 6.20238 15.8101 6.09621 15.704L1.29237 10.9001Z" fill="#5E626C" stroke="#5E626C" stroke-width="0.5"/>
</g>
<defs>
<clipPath id="clip0_282_1301">
<rect width="20" height="20" fill="white" transform="translate(0 20) rotate(-90)"/>
</clipPath>
</defs>
</svg>
