<svg width="20" height="20" viewBox="0 0 20 20" fill="none" xmlns="http://www.w3.org/2000/svg">
<g clip-path="url(#clip0_282_1306)">
<path fill-rule="evenodd" clip-rule="evenodd" d="M18.7076 9.09986C18.8138 9.20603 18.8734 9.35003 18.8734 9.50018C18.8734 9.65033 18.8138 9.79433 18.7076 9.9005L13.9038 14.7043C13.7976 14.8105 13.6536 14.8702 13.5035 14.8702C13.3533 14.8702 13.2093 14.8105 13.1032 14.7043C12.997 14.5982 12.9373 14.4542 12.9373 14.304C12.9373 14.1539 12.997 14.0099 13.1032 13.9037L16.9406 10.0662L0.693252 10.067C0.618812 10.067 0.545101 10.0524 0.476327 10.0239C0.407553 9.9954 0.345064 9.95365 0.292427 9.90101C0.23979 9.84837 0.198036 9.78588 0.169549 9.71711C0.141062 9.64833 0.126399 9.57462 0.126399 9.50018C0.126399 9.42574 0.141062 9.35203 0.169549 9.28326C0.198036 9.21448 0.23979 9.152 0.292427 9.09936C0.345064 9.04672 0.407553 9.00497 0.476327 8.97648C0.545101 8.94799 0.618812 8.93333 0.693252 8.93333L16.9406 8.93413L13.1032 5.09667C12.997 4.9905 12.9373 4.8465 12.9373 4.69635C12.9373 4.5462 12.997 4.4022 13.1032 4.29603C13.2093 4.18986 13.3533 4.13021 13.5035 4.13021C13.6536 4.13021 13.7976 4.18986 13.9038 4.29603L18.7076 9.09986Z" fill="#F15223" stroke="#F15223" stroke-width="0.5"/>
</g>
<defs>
<clipPath id="clip0_282_1306">
<rect width="20" height="20" fill="white" transform="translate(20) rotate(90)"/>
</clipPath>
</defs>
</svg>
