<svg width="24" height="24" viewBox="0 0 24 24" fill="none" xmlns="http://www.w3.org/2000/svg">
  <path
    d="M11.5004 8.07623C10.4639 8.07623 9.46997 8.48999 8.73712 9.22651C8.00426 9.96302 7.59254 10.9619 7.59254 12.0035C7.59254 13.0451 8.00426 14.044 8.73712 14.7806C9.46997 15.5171 10.4639 15.9308 11.5004 15.9308C12.5368 15.9308 13.5307 15.5171 14.2636 14.7806C14.9965 14.044 15.4082 13.0451 15.4082 12.0035C15.4082 10.9619 14.9965 9.96302 14.2636 9.22651C13.5307 8.48999 12.5368 8.07623 11.5004 8.07623ZM9.15567 12.0035C9.15567 11.3786 9.4027 10.7792 9.84241 10.3373C10.2821 9.89541 10.8785 9.64715 11.5004 9.64715C12.1222 9.64715 12.7186 9.89541 13.1583 10.3373C13.598 10.7792 13.8451 11.3786 13.8451 12.0035C13.8451 12.6285 13.598 13.2278 13.1583 13.6698C12.7186 14.1117 12.1222 14.3599 11.5004 14.3599C10.8785 14.3599 10.2821 14.1117 9.84241 13.6698C9.4027 13.2278 9.15567 12.6285 9.15567 12.0035ZM9.03062 22.7078C9.83954 22.9018 10.6688 23 11.5004 23C12.3312 22.9987 13.159 22.8999 13.967 22.7055C14.1991 22.6505 14.4087 22.5246 14.5668 22.3452C14.7249 22.1657 14.8239 21.9415 14.8501 21.7032L15.033 20.0302C15.0507 19.8477 15.1113 19.672 15.2098 19.5177C15.3084 19.3634 15.4421 19.2349 15.5999 19.1428C15.7577 19.0507 15.935 18.9976 16.1172 18.988C16.2994 18.9785 16.4813 19.0126 16.6477 19.0876L18.1757 19.76C18.3944 19.8567 18.6377 19.8826 18.8717 19.834C19.1058 19.7855 19.319 19.6649 19.4817 19.489C20.6107 18.2665 21.4534 16.8058 21.9483 15.2137C22.0193 14.9834 22.0171 14.7367 21.9422 14.5077C21.8673 14.2787 21.7233 14.0788 21.5302 13.9358L20.1788 12.9343C20.0312 12.8262 19.9112 12.6846 19.8285 12.5209C19.7458 12.3573 19.7028 12.1763 19.703 11.9927C19.7033 11.8092 19.7467 11.6283 19.8298 11.4649C19.9129 11.3014 20.0333 11.1601 20.1812 11.0523L21.5255 10.0548C21.7197 9.91215 21.8646 9.71198 21.9398 9.48237C22.0151 9.25276 22.017 9.00523 21.9452 8.7745C21.4512 7.18189 20.608 5.72094 19.4778 4.49923C19.3144 4.32363 19.1008 4.20328 18.8665 4.15475C18.6322 4.10622 18.3886 4.1319 18.1694 4.22825L16.6485 4.9006C16.4818 4.97363 16.3004 5.00622 16.1188 4.99572C15.9373 4.98522 15.7607 4.93194 15.6034 4.84018C15.4462 4.74843 15.3126 4.62076 15.2135 4.46752C15.1144 4.31428 15.0526 4.13975 15.033 3.95805L14.8486 2.29287C14.8228 2.05178 14.7224 1.82488 14.5616 1.64411C14.4008 1.46333 14.1876 1.33778 13.9521 1.28512C13.1496 1.1049 12.3305 1.00934 11.5082 1C10.681 1.00984 9.85705 1.10539 9.04938 1.28512C8.81383 1.33688 8.60048 1.46185 8.43958 1.64231C8.27867 1.82277 8.17838 2.04956 8.15292 2.29051L7.96769 3.95726C7.94746 4.13924 7.88511 4.31392 7.78562 4.46733C7.68614 4.62073 7.5523 4.74859 7.39481 4.84067C7.23732 4.93275 7.06057 4.98648 6.87871 4.99757C6.69684 5.00866 6.51492 4.9768 6.34751 4.90453L4.82659 4.23139C4.60714 4.13772 4.36441 4.11385 4.13106 4.163C3.8977 4.21215 3.68493 4.33196 3.52138 4.5063C2.39095 5.72919 1.54709 7.19076 1.05164 8.78393C0.981121 9.01407 0.983559 9.26055 1.05862 9.48923C1.13367 9.71792 1.27763 9.91749 1.47056 10.0603L2.81875 11.0594C2.96562 11.168 3.08501 11.3098 3.1673 11.4733C3.24959 11.6369 3.29246 11.8175 3.29246 12.0008C3.29246 12.184 3.24959 12.3647 3.1673 12.5282C3.08501 12.6918 2.96562 12.8336 2.81875 12.9422L1.47056 13.9436C1.2769 14.0867 1.13253 14.287 1.05757 14.5165C0.98261 14.746 0.98081 14.9933 1.05242 15.2239C1.54765 16.8181 2.39151 18.2808 3.52216 19.5047C3.62965 19.6208 3.75997 19.7133 3.90487 19.7761C4.04977 19.839 4.20608 19.871 4.3639 19.8699C4.52256 19.8699 4.67966 19.8369 4.82581 19.7733L6.35377 19.0986C6.52042 19.0262 6.70164 18.9942 6.88287 19.005C7.0641 19.0158 7.24028 19.0692 7.39724 19.1609C7.55421 19.2525 7.68759 19.3799 7.78666 19.5328C7.88574 19.6857 7.94774 19.8598 7.96769 20.0412L8.15136 21.7111C8.17804 21.948 8.27678 22.171 8.43412 22.3495C8.59147 22.528 8.79977 22.6534 9.03062 22.7086V22.7078ZM13.33 21.2421C12.1241 21.4907 10.8805 21.4907 9.67463 21.2421L9.52222 19.8754C9.44772 19.2068 9.13049 18.5893 8.63124 18.1411C8.24036 17.7952 7.76014 17.5675 7.24599 17.4841C6.73183 17.4007 6.20469 17.4651 5.72539 17.6699L4.4702 18.2197C3.66049 17.2879 3.03739 16.2077 2.63509 15.0386L3.74803 14.2123C4.09187 13.9576 4.37137 13.6254 4.56399 13.2423C4.75662 12.8591 4.85697 12.4359 4.85697 12.0067C4.85697 11.5774 4.75662 11.1542 4.56399 10.7711C4.37137 10.388 4.09187 10.0557 3.74803 9.8011L2.63743 8.97715C3.0402 7.80913 3.66328 6.73011 4.47254 5.79917L5.72304 6.34899C6.06771 6.50195 6.44045 6.58062 6.81723 6.57992C7.4882 6.57781 8.13498 6.32793 8.63459 5.87783C9.1342 5.42772 9.45177 4.80878 9.52691 4.13871L9.67854 2.7665C10.2835 2.64868 10.8978 2.58585 11.5129 2.57799C12.1241 2.58585 12.7337 2.64868 13.3339 2.7665L13.4793 4.13321C13.5517 4.80371 13.8682 5.42364 14.3679 5.87379C14.759 6.2218 15.2406 6.45089 15.7563 6.53433C16.272 6.61777 16.8008 6.55213 17.2808 6.34507L18.5313 5.79524C19.3417 6.72593 19.9654 7.80533 20.368 8.97401L19.2558 9.7956C18.9102 10.0493 18.6291 10.3815 18.4353 10.765C18.2414 11.1485 18.1404 11.5726 18.1404 12.0027C18.1404 12.4329 18.2414 12.857 18.4353 13.2405C18.6291 13.624 18.9102 13.9562 19.2558 14.2099L20.3672 15.0346C19.9642 16.2011 19.342 17.2789 18.5344 18.2095L17.2839 17.6596C16.8926 17.4846 16.4656 17.4052 16.0379 17.4278C15.6102 17.4503 15.1939 17.5743 14.8229 17.7896C14.452 18.0049 14.1371 18.3053 13.9038 18.6663C13.6705 19.0273 13.5256 19.4387 13.4808 19.8668L13.33 21.2414V21.2421Z"
    fill="white" />
</svg>