<svg width="35" height="35" viewBox="0 0 35 35" fill="none" xmlns="http://www.w3.org/2000/svg">
<g clip-path="url(#clip0_259_4337)">
<path d="M26.9595 34.4555C26.6326 34.4546 26.3066 34.4188 25.9873 34.3486C19.9076 33.091 14.3066 30.1422 9.82896 25.8417C5.44683 21.5317 2.40759 16.0442 1.07896 10.0431C0.922295 9.29513 0.960746 8.51948 1.19061 7.79072C1.42048 7.06196 1.83402 6.40462 2.39146 5.88194L6.28035 2.13889C6.47898 1.95104 6.71499 1.80719 6.97297 1.71673C7.23096 1.62627 7.50512 1.59122 7.77757 1.61389C8.06006 1.64336 8.33267 1.73436 8.57622 1.88049C8.81977 2.02662 9.02835 2.22433 9.18729 2.45972L14.0484 9.64444C14.2307 9.92322 14.3187 10.2531 14.2994 10.5857C14.2802 10.9182 14.1547 11.2358 13.9415 11.4917L11.5012 14.4083C12.4731 16.5593 13.8494 18.5034 15.5553 20.1347C17.2502 21.8252 19.2535 23.175 21.4567 24.1111L24.4803 21.7097C24.7343 21.509 25.0433 21.3904 25.3663 21.3695C25.6893 21.3487 26.011 21.4266 26.2887 21.5931L33.629 26.3375C33.8809 26.4879 34.0954 26.6933 34.2567 26.9385C34.4179 27.1836 34.5216 27.462 34.5599 27.7528C34.5982 28.0437 34.5703 28.3395 34.4781 28.618C34.3859 28.8965 34.2319 29.1506 34.0276 29.3611L30.2359 33.1139C29.8052 33.5425 29.294 33.8817 28.7317 34.1119C28.1694 34.3422 27.5671 34.459 26.9595 34.4555ZM7.62201 3.53889L3.73312 7.28194C3.41954 7.57414 3.1874 7.94294 3.05955 8.35205C2.93171 8.76116 2.91255 9.19651 3.00396 9.61527C4.23938 15.2465 7.07924 20.3995 11.1803 24.4514C15.3941 28.4973 20.665 31.2709 26.3859 32.4528C26.8189 32.5433 27.2677 32.525 27.6919 32.3994C28.1161 32.2738 28.5025 32.045 28.8165 31.7333L32.6081 27.9806L25.5206 23.4014L22.2734 25.9875C22.1491 26.0859 22.0026 26.1524 21.8467 26.1812C21.6908 26.21 21.5302 26.2002 21.379 26.1528C18.6827 25.1594 16.2393 23.5824 14.2234 21.5347C12.1383 19.5876 10.5198 17.1947 9.48868 14.5347C9.44506 14.3737 9.44361 14.2041 9.48447 14.0424C9.52534 13.8806 9.60714 13.7321 9.72201 13.6111L12.347 10.4708L7.62201 3.53889Z" fill="white"/>
</g>
<defs>
<clipPath id="clip0_259_4337">
<rect width="35" height="35" fill="white"/>
</clipPath>
</defs>
</svg>
