<svg width="30" height="30" viewBox="0 0 30 30" fill="none" xmlns="http://www.w3.org/2000/svg">
<g clip-path="url(#clip0_179_7444)">
<path d="M13.3594 5.27344C13.8124 5.27344 14.1797 4.90617 14.1797 4.45312C14.1797 4.00008 13.8124 3.63281 13.3594 3.63281C12.9063 3.63281 12.5391 4.00008 12.5391 4.45312C12.5391 4.90617 12.9063 5.27344 13.3594 5.27344Z" fill="white"/>
<path d="M16.6406 5.27344C17.0937 5.27344 17.4609 4.90617 17.4609 4.45312C17.4609 4.00008 17.0937 3.63281 16.6406 3.63281C16.1876 3.63281 15.8203 4.00008 15.8203 4.45312C15.8203 4.90617 16.1876 5.27344 16.6406 5.27344Z" fill="white"/>
<path d="M13.3594 8.78906C13.8124 8.78906 14.1797 8.4218 14.1797 7.96875C14.1797 7.5157 13.8124 7.14844 13.3594 7.14844C12.9063 7.14844 12.5391 7.5157 12.5391 7.96875C12.5391 8.4218 12.9063 8.78906 13.3594 8.78906Z" fill="white"/>
<path d="M16.6406 8.78906C17.0937 8.78906 17.4609 8.4218 17.4609 7.96875C17.4609 7.5157 17.0937 7.14844 16.6406 7.14844C16.1876 7.14844 15.8203 7.5157 15.8203 7.96875C15.8203 8.4218 16.1876 8.78906 16.6406 8.78906Z" fill="white"/>
<path d="M13.3594 12.3047C13.8124 12.3047 14.1797 11.9374 14.1797 11.4844C14.1797 11.0313 13.8124 10.6641 13.3594 10.6641C12.9063 10.6641 12.5391 11.0313 12.5391 11.4844C12.5391 11.9374 12.9063 12.3047 13.3594 12.3047Z" fill="white"/>
<path d="M16.6406 12.3047C17.0937 12.3047 17.4609 11.9374 17.4609 11.4844C17.4609 11.0313 17.0937 10.6641 16.6406 10.6641C16.1876 10.6641 15.8203 11.0313 15.8203 11.4844C15.8203 11.9374 16.1876 12.3047 16.6406 12.3047Z" fill="white"/>
<path d="M13.125 19.3359C13.578 19.3359 13.9453 18.9687 13.9453 18.5156C13.9453 18.0626 13.578 17.6953 13.125 17.6953C12.672 17.6953 12.3047 18.0626 12.3047 18.5156C12.3047 18.9687 12.672 19.3359 13.125 19.3359Z" fill="white"/>
<path d="M16.875 19.3359C17.328 19.3359 17.6953 18.9687 17.6953 18.5156C17.6953 18.0626 17.328 17.6953 16.875 17.6953C16.422 17.6953 16.0547 18.0626 16.0547 18.5156C16.0547 18.9687 16.422 19.3359 16.875 19.3359Z" fill="white"/>
<path d="M15 21.2109C15.453 21.2109 15.8203 20.8437 15.8203 20.3906C15.8203 19.9376 15.453 19.5703 15 19.5703C14.547 19.5703 14.1797 19.9376 14.1797 20.3906C14.1797 20.8437 14.547 21.2109 15 21.2109Z" fill="white"/>
<path d="M17.8354 10.1953C19.4138 10.9625 21.3153 10.305 22.0826 8.72655C22.8498 7.14814 22.1922 5.24661 20.6138 4.47937C19.0354 3.71212 17.1339 4.3697 16.3666 5.94812C15.5994 7.52653 16.257 9.42806 17.8354 10.1953Z" stroke="#231F20" stroke-miterlimit="10" stroke-linecap="round" stroke-linejoin="round"/>
<path d="M18.7018 8.41436C19.2966 8.70345 20.013 8.45568 20.3021 7.86096C20.5912 7.26624 20.3434 6.54977 19.7487 6.26068C19.154 5.97159 18.4375 6.21936 18.1484 6.81408C17.8594 7.40881 18.1071 8.12528 18.7018 8.41436Z" stroke="#231F20" stroke-miterlimit="10" stroke-linecap="round" stroke-linejoin="round"/>
<path d="M5.61835 24.4257L16.6659 1.69806C17.0083 0.993774 17.8577 0.700024 18.562 1.04237L24.5842 3.96965C25.2884 4.31199 25.5822 5.16143 25.2398 5.86571L14.1923 28.5934C13.8499 29.2976 13.0005 29.5914 12.2962 29.249L6.27404 26.3218C5.56893 25.9811 5.27518 25.1317 5.61835 24.4257Z" stroke="#231F20" stroke-width="1.5" stroke-miterlimit="10" stroke-linecap="round" stroke-linejoin="round"/>
<path d="M14.2214 13.2609C14.8161 13.55 15.5326 13.3022 15.8217 12.7075C16.1107 12.1128 15.863 11.3963 15.2682 11.1072C14.6735 10.8181 13.9571 11.0659 13.668 11.6606C13.3789 12.2553 13.6266 12.9718 14.2214 13.2609Z" stroke="#231F20" stroke-miterlimit="10" stroke-linecap="round" stroke-linejoin="round"/>
<path d="M19.3258 14.4106C19.0372 15.0043 18.3209 15.2535 17.7255 14.964C17.1318 14.6754 16.8844 13.96 17.1738 13.3646C17.4632 12.7692 18.1787 12.5218 18.7724 12.8104C19.3661 13.099 19.6144 13.8169 19.3258 14.4106Z" stroke="#231F20" stroke-miterlimit="10" stroke-linecap="round" stroke-linejoin="round"/>
</g>
<defs>
<clipPath id="clip0_179_7444">
<rect width="30" height="30" fill="white"/>
</clipPath>
</defs>
</svg>
