<svg width="35" height="35" viewBox="0 0 35 35" fill="none" xmlns="http://www.w3.org/2000/svg">
<path d="M26.25 8.75H21.0146L24.3687 5.41042C24.5047 5.27444 24.6126 5.11302 24.6862 4.93536C24.7598 4.75771 24.7976 4.56729 24.7976 4.375C24.7976 4.18271 24.7598 3.99229 24.6862 3.81464C24.6126 3.63698 24.5047 3.47556 24.3687 3.33958C24.2328 3.20361 24.0714 3.09575 23.8937 3.02216C23.716 2.94858 23.5256 2.9107 23.3333 2.9107C22.945 2.9107 22.5725 3.06497 22.2979 3.33958L17.5 8.15208L12.7021 3.33958C12.5661 3.20361 12.4047 3.09575 12.227 3.02216C12.0494 2.94858 11.859 2.9107 11.6667 2.9107C11.4744 2.9107 11.284 2.94858 11.1063 3.02216C10.9286 3.09575 10.7672 3.20361 10.6312 3.33958C10.3566 3.61419 10.2024 3.98664 10.2024 4.375C10.2024 4.56729 10.2402 4.75771 10.3138 4.93536C10.3874 5.11302 10.4953 5.27444 10.6312 5.41042L13.9854 8.75H8.75C7.58968 8.75 6.47688 9.21094 5.65641 10.0314C4.83594 10.8519 4.375 11.9647 4.375 13.125V27.7083C4.375 28.8687 4.83594 29.9815 5.65641 30.8019C6.47688 31.6224 7.58968 32.0833 8.75 32.0833H26.25C27.4103 32.0833 28.5231 31.6224 29.3436 30.8019C30.1641 29.9815 30.625 28.8687 30.625 27.7083V13.125C30.625 11.9647 30.1641 10.8519 29.3436 10.0314C28.5231 9.21094 27.4103 8.75 26.25 8.75ZM27.7083 27.7083C27.7083 28.0951 27.5547 28.466 27.2812 28.7395C27.0077 29.013 26.6368 29.1667 26.25 29.1667H8.75C8.36323 29.1667 7.99229 29.013 7.7188 28.7395C7.44531 28.466 7.29167 28.0951 7.29167 27.7083V13.125C7.29167 12.7382 7.44531 12.3673 7.7188 12.0938C7.99229 11.8203 8.36323 11.6667 8.75 11.6667H26.25C26.6368 11.6667 27.0077 11.8203 27.2812 12.0938C27.5547 12.3673 27.7083 12.7382 27.7083 13.125V27.7083Z" fill="white"/>
</svg>
