<svg width="30" height="30" viewBox="0 0 30 30" fill="none" xmlns="http://www.w3.org/2000/svg">
<g clip-path="url(#clip0_179_7466)">
<path d="M6.5625 12.1875L9.375 18.2812L12.1875 12.1875M15.4688 12.1875V18.2812M19.2188 16.1953V18.2812M19.2188 16.1953H20.6062C21.2166 16.1953 21.8034 15.9375 22.2197 15.4922C22.5627 15.1262 22.7699 14.6537 22.8066 14.1535C22.8432 13.6532 22.7072 13.1555 22.4213 12.7434C22.3008 12.5718 22.1408 12.4317 21.9548 12.335C21.7687 12.2382 21.5622 12.1876 21.3525 12.1875H19.2188V16.1953ZM4.6875 6.5625H25.3125C25.8098 6.5625 26.2867 6.76004 26.6383 7.11167C26.99 7.46331 27.1875 7.94022 27.1875 8.4375V21.5625C27.1875 22.0598 26.99 22.5367 26.6383 22.8883C26.2867 23.24 25.8098 23.4375 25.3125 23.4375H4.6875C4.19022 23.4375 3.71331 23.24 3.36167 22.8883C3.01004 22.5367 2.8125 22.0598 2.8125 21.5625V8.4375C2.8125 7.94022 3.01004 7.46331 3.36167 7.11167C3.71331 6.76004 4.19022 6.5625 4.6875 6.5625V6.5625Z" stroke="black" stroke-width="2" stroke-linecap="round" stroke-linejoin="round"/>
</g>
<defs>
<clipPath id="clip0_179_7466">
<rect width="30" height="30" fill="white"/>
</clipPath>
</defs>
</svg>
