<svg width="40" height="40" viewBox="0 0 40 40" fill="none" xmlns="http://www.w3.org/2000/svg">
<path d="M24.354 2.67C24.0338 2.41039 23.6636 2.21954 23.2663 2.10938C22.8691 1.99921 22.4535 1.97209 22.0453 2.02971C21.6371 2.08732 21.2452 2.22843 20.894 2.44423C20.5428 2.66004 20.2398 2.94591 20.004 3.284L13.92 11.998H16.36L21.64 4.428C21.7187 4.31505 21.8198 4.21956 21.937 4.1475C22.0543 4.07543 22.1852 4.02835 22.3215 4.0092C22.4578 3.99005 22.5966 3.99925 22.7292 4.03621C22.8617 4.07317 22.9853 4.1371 23.092 4.224L24.708 5.536L20.24 11.998H22.672L26.264 6.798L29.632 9.532C29.8282 9.69154 29.9567 9.91952 29.9916 10.17C30.0265 10.4205 29.9652 10.6749 29.82 10.882L29.04 11.998H31.48C31.9041 11.3763 32.079 10.6179 31.9701 9.87332C31.8611 9.12869 31.4764 8.4522 30.892 7.978L24.352 2.67H24.354ZM9 10C8.20435 10 7.44129 10.3161 6.87868 10.8787C6.31607 11.4413 6 12.2044 6 13V29C6 30.3261 6.52678 31.5979 7.46447 32.5355C8.40215 33.4732 9.67392 34 11 34H30C31.0609 34 32.0783 33.5786 32.8284 32.8284C33.5786 32.0783 34 31.0609 34 30V18C34 16.9391 33.5786 15.9217 32.8284 15.1716C32.0783 14.4214 31.0609 14 30 14H9C8.73478 14 8.48043 13.8946 8.29289 13.7071C8.10536 13.5196 8 13.2652 8 13C8 12.7348 8.10536 12.4804 8.29289 12.2929C8.48043 12.1054 8.73478 12 9 12H11.938L13.338 10H9ZM27 24H29C29.2652 24 29.5196 24.1054 29.7071 24.2929C29.8946 24.4804 30 24.7348 30 25C30 25.2652 29.8946 25.5196 29.7071 25.7071C29.5196 25.8946 29.2652 26 29 26H27C26.7348 26 26.4804 25.8946 26.2929 25.7071C26.1054 25.5196 26 25.2652 26 25C26 24.7348 26.1054 24.4804 26.2929 24.2929C26.4804 24.1054 26.7348 24 27 24Z" fill="white"/>
</svg>
