<svg width="16" height="18" viewBox="0 0 16 18" fill="none" xmlns="http://www.w3.org/2000/svg">
<path d="M8 0.5625C6.26015 0.564568 4.59216 1.25664 3.3619 2.4869C2.13164 3.71715 1.43957 5.38515 1.4375 7.125C1.4375 8.89062 2.14844 10.8438 3.33594 12.3594C4.3125 13.6094 5.48438 14.4297 6.73438 14.7656L5.83594 17.0078C5.81592 17.0546 5.80828 17.1058 5.81375 17.1564C5.81923 17.2071 5.83763 17.2554 5.86719 17.2969C5.89535 17.3396 5.93359 17.3748 5.97855 17.3994C6.0235 17.4239 6.07379 17.437 6.125 17.4375H9.875C9.92621 17.437 9.9765 17.4239 10.0215 17.3994C10.0664 17.3748 10.1047 17.3396 10.1328 17.2969C10.1624 17.2554 10.1808 17.2071 10.1862 17.1564C10.1917 17.1058 10.1841 17.0546 10.1641 17.0078L9.26562 14.7656C10.5156 14.4297 11.6875 13.6094 12.6641 12.3594C13.8516 10.8438 14.5625 8.89062 14.5625 7.125C14.5604 5.38515 13.8684 3.71715 12.6381 2.4869C11.4078 1.25664 9.73985 0.564568 8 0.5625ZM9.41406 16.8125H6.58594L7.35156 14.8906C7.78159 14.9531 8.21841 14.9531 8.64844 14.8906L9.41406 16.8125ZM8 14.3125C4.71094 14.3125 2.0625 10.3828 2.0625 7.125C2.0625 5.55028 2.68806 4.04005 3.80155 2.92655C4.91505 1.81306 6.42528 1.1875 8 1.1875C9.57472 1.1875 11.0849 1.81306 12.1984 2.92655C13.3119 4.04005 13.9375 5.55028 13.9375 7.125C13.9375 10.3828 11.2891 14.3125 8 14.3125ZM12.0078 6.44531C12.0145 6.48584 12.0132 6.52729 12.0038 6.5673C11.9945 6.6073 11.9774 6.64508 11.9534 6.67845C11.9295 6.71183 11.8992 6.74016 11.8643 6.76182C11.8294 6.78348 11.7905 6.79805 11.75 6.80469H11.6953C11.6224 6.80399 11.5521 6.77784 11.4964 6.73076C11.4408 6.68368 11.4034 6.61864 11.3906 6.54688C11.2722 5.84188 10.9368 5.19135 10.4313 4.68585C9.92584 4.18035 9.27531 3.84503 8.57031 3.72656C8.48847 3.71206 8.41574 3.66564 8.36812 3.59751C8.32051 3.52938 8.3019 3.44513 8.31641 3.36328C8.33091 3.28144 8.37733 3.20871 8.44546 3.16109C8.51359 3.11347 8.59784 3.09487 8.67969 3.10938C9.5119 3.25159 10.2793 3.64907 10.8756 4.24676C11.4719 4.84445 11.8676 5.61277 12.0078 6.44531Z" fill="white" stroke="white"/>
</svg>
